<?xml version="1.0" encoding="utf-8"?>
<!-- Generator: Adobe Illustrator 20.1.0, SVG Export Plug-In . SVG Version: 6.00 Build 0)  -->
<svg version="1.1" id="Layer_1" xmlns="http://www.w3.org/2000/svg" xmlns:xlink="http://www.w3.org/1999/xlink" x="0px" y="0px"
	 viewBox="0 0 40 40" style="enable-background:new 0 0 40 40;" xml:space="preserve">
<g>
	<path d="M37,22.8c0,0,1.3-2.6,0.7-4c0,0-0.7-2.6-2.2-2.5c0,0-8,0.5-8.6,0.6c-0.6,0.1-0.9,0.1-2-0.6c0,0-0.5-0.7,1.1-3
		c0,0,1.9-3.9,2.4-6c0,0,0.6-3.8-2.5-5.9c0,0-1.5-0.9-2.4,0c0,0-0.2,0.5-0.5,3.7c0,0-0.2,2.5-1.9,4.7c0,0-3.7,3.2-4.7,5.8
		c0,0-1.4,4.1-4.4,6.3V36c0,0,0.2-0.9,6.1,1.2c0,0,4.1,1.8,7.2,1.8c0,0,3.9,0,6,0c2.1,0,2.7-1.9,3.5-3.3c0,0,0.7-2.1,0-3
		c0,0,1.9-0.8,2.1-2.5c0,0,0.3-0.9-0.5-2.4c0,0,1-1.3,1.3-3.5C37.7,24.3,38,23.6,37,22.8z"/>
	<path d="M2.5,20.9C1.4,30.4,4.6,37,4.6,37H11V20.9C7,20.4,2.5,20.9,2.5,20.9z M9.2,34c0,0.7-0.5,1.2-1.2,1.2
		c-0.7,0-1.2-0.5-1.2-1.2c0-0.7,0.5-1.2,1.2-1.2C8.7,32.8,9.2,33.4,9.2,34z"/>
</g>
</svg>
