<?xml version="1.0" encoding="utf-8"?>
<!-- Generator: Adobe Illustrator 20.1.0, SVG Export Plug-In . SVG Version: 6.00 Build 0)  -->
<svg version="1.1" id="Layer_1" xmlns="http://www.w3.org/2000/svg" xmlns:xlink="http://www.w3.org/1999/xlink" x="0px" y="0px"
	 viewBox="0 0 40 40" style="enable-background:new 0 0 40 40;" xml:space="preserve">
<g transform="translate(-330 -80)">
	<g>
		<rect x="339.7" y="83" width="3.6" height="8.5"/>
		<g>
			<path d="M342.1,103.6V92.7h-1.2v10.9h-3.6V117h8.5v-13.4H342.1z M339.7,114.6h-1.2v-8.5h1.2V114.6z M342.1,114.6h-1.2v-8.5h1.2
				V114.6z M344.5,114.6h-1.2v-8.5h1.2V114.6z"/>
		</g>
		<rect x="354.2" y="83" width="3.6" height="8.5"/>
		<path d="M356.7,103.7v-11h-1.2v11c-3.4,0.3-6.1,3.2-6.1,6.6c0,3.7,3,6.7,6.7,6.7c3.7,0,6.7-3,6.7-6.7
			C362.8,106.8,360.1,104,356.7,103.7z"/>
	</g>
</g>
</svg>
