<?xml version="1.0" encoding="utf-8"?>
<!-- Generator: Adobe Illustrator 20.1.0, SVG Export Plug-In . SVG Version: 6.00 Build 0)  -->
<svg version="1.1" id="Layer_1" xmlns="http://www.w3.org/2000/svg" xmlns:xlink="http://www.w3.org/1999/xlink" x="0px" y="0px"
	 viewBox="0 0 40 40" style="enable-background:new 0 0 40 40;" xml:space="preserve">
<style type="text/css">
	.st0{fill:#000001;}
</style>
<path class="st0" d="M37,21.5c0-0.1-0.2-0.4-0.7-0.4H35c-0.3,0-0.5,0.1-0.5,0.4c0,0.3,0.2,0.4,0.5,0.4h0c-1.2,0.8-3.1,1.6-4.8,2.3
	h-2.2c-0.3,0-0.5,0.3-0.5,0.6c0,0.3,0.2,0.6,0.5,0.6h1.2l-0.6,0.8H11.4l-0.5-0.8h13.9c0.3,0,0.5-0.3,0.5-0.6c0-0.3-0.2-0.6-0.5-0.6
	H9.8c-1.7-0.8-3.7-1.6-4.8-2.3h27.3c0.2,0,0.4-0.1,0.5-0.3c0-0.1,0.1-0.1,0.1-0.2c0-0.1-0.2-2.8-2.1-4.1c-0.6-0.4-1.3-0.6-2-0.6
	c-0.1-0.4-0.5-1.3-1.3-2.1c-1-1-2.7-2.1-5.7-1.6c-1.4,0.2-2.5,1-3.2,1.9c-0.3-0.2-0.8-0.6-1.6-0.8c-1-0.3-2.8-0.5-5,0.7
	c-4.6,2.5-5.2,6.1-5.2,6.3c0,0,0,0.2,0,0.2H3.8c-0.6,0-0.7,0.3-0.7,0.4c-0.1,0.5,0.3,0.8,1.2,1.3c0.5,0.3,1.2,0.7,2.2,1.1
	c1.6,0.8,3.1,1.5,3.2,1.5c0,0,0,0,0,0l1.1,1.7c0.1,0.1,0.3,0.3,0.4,0.3h17.7c0.2,0,0.3-0.1,0.4-0.3l1.3-1.7c0.3-0.1,1.7-0.8,3.1-1.5
	c0.9-0.5,1.7-0.8,2.2-1.1C36.7,22.2,37.1,21.9,37,21.5z M16.8,21.1H10c0.2-0.8,0.6-1.4,1-2c0.4,0.2,0.8,0.5,1.1,0.8
	c0.1,0.1,0.2,0.3,0.3,0.5c0.1,0.2,0.3,0.4,0.5,0.4c0,0,0.1,0,0.1,0c0.3-0.1,0.5-0.4,0.4-0.6c-0.1-0.4-0.3-0.7-0.5-1
	c-0.3-0.3-0.7-0.6-1.1-0.9c0.2-0.2,0.4-0.3,0.6-0.5c0.4,0.2,1.2,0.7,1.5,1.1c0.1,0.2,0.3,0.5,0.4,1.3c0,0.3,0.3,0.5,0.5,0.5
	c0,0,0,0,0.1,0c0.3,0,0.5-0.3,0.5-0.6c-0.1-0.8-0.3-1.4-0.6-1.8c-0.3-0.4-0.8-0.8-1.3-1.1c0.3-0.1,0.5-0.2,0.8-0.3
	c1,1.5,2,1.9,2.7,1.9C16.8,19.7,16.8,20.3,16.8,21.1z M17.2,17.7c-0.2,0-1,0-1.8-1c1.1,0,1.7,0.5,1.8,0.6c0,0,0.1,0,0.1,0.1
	C17.2,17.4,17.2,17.5,17.2,17.7z M22.6,21.1h-2.9c0,0,0-0.2,0-0.2c0-0.3,0-0.6,0-1c0.4-0.2,1.5-0.8,2.4-0.5c0.7,0.2,1,0.5,1.2,0.6
	C23,20.3,22.8,20.7,22.6,21.1z M22.6,17.5c0.8,0.2,1.5,0.8,1.8,1.1c-0.2,0.2-0.3,0.3-0.5,0.5c-0.3-0.2-0.8-0.5-1.6-0.8
	c-0.9-0.3-1.9,0-2.6,0.3c0-0.2,0.1-0.5,0.2-0.7c0,0,0,0,0.1,0C20.3,17.6,21.8,17.2,22.6,17.5z M20.8,16.5c0.2-0.2,0.5-0.4,0.8-0.5
	c2.4-0.9,3.7,0.7,4.2,1.5c-0.2,0.1-0.4,0.3-0.6,0.4c-0.4-0.4-1.3-1.1-2.3-1.4C22.3,16.3,21.5,16.3,20.8,16.5z M30.2,18.2
	c1,0.7,1.4,2.1,1.6,2.9h-1c-0.1-1.2-0.7-2.5-2.2-2.5c-0.9,0-1.8,0.4-2.8,1.3c-0.2,0.2-0.2,0.5,0,0.7c0.2,0.2,0.5,0.2,0.7,0
	c0.8-0.7,1.5-1,2.1-1c0.8,0,1.1,0.7,1.2,1.4h-5.9c0.9-1.6,2.4-2.8,3.7-3.1C28.6,17.6,29.5,17.7,30.2,18.2z M21.9,13.9
	c3.9-0.7,5.4,1.8,5.8,2.8c-0.2,0-0.3,0.1-0.5,0.1c-0.1,0-0.3,0.1-0.4,0.1c-0.2-0.3-0.7-0.9-1.3-1.3c-0.9-0.7-2.1-1.5-4-0.6
	c-2.8,1.2-2.6,4.5-2.7,6.1h-0.9C17.8,19.5,18.1,14.6,21.9,13.9z M12.5,15.6c3.3-1.8,5.2-0.3,5.5,0c-0.1,0.2-0.3,0.4-0.4,0.6
	c-0.6-0.4-2.5-1.4-5.3,0.3v0c0,0,0,0.1,0,0.1c-1.8,1.1-3,2.5-3.4,4.4h-1C8,20.3,8.7,17.6,12.5,15.6z"/>
</svg>
