<?xml version="1.0" encoding="utf-8"?>
<!-- Generator: Adobe Illustrator 20.1.0, SVG Export Plug-In . SVG Version: 6.00 Build 0)  -->
<svg version="1.1" id="Layer_1" xmlns="http://www.w3.org/2000/svg" xmlns:xlink="http://www.w3.org/1999/xlink" x="0px" y="0px"
	 viewBox="0 0 40 40" style="enable-background:new 0 0 40 40;" xml:space="preserve">
<g>
	<path d="M13.1,11.3h14.1c0.8,0,1-0.9,1-1.5V5.4c0-0.6-0.2-1-1-1h-3.3c0-1.3-0.8-2.6-2-3.1c-2.8-1.1-5.4,0.5-5.4,3.1h-3.4
		c-0.8,0-1.2,0.4-1.2,1v4.4C11.8,10.6,12.4,11.3,13.1,11.3z"/>
	<path d="M32.4,6.9h-1.7v4.8c0,0.7-0.8,1.5-1.4,1.5H11.1c-0.8,0-1.2-0.9-1.2-1.5V6.9h-2C7.4,6.9,6.8,7,6.8,7.7v30.1
		c0,0.5,0.5,1.2,1.1,1.2h24.5c0.5,0,0.8-0.6,0.8-1.2V7.7C33.2,7.2,33,6.9,32.4,6.9z M16,20.1h3.4V17c0-0.5,0.3-1,0.9-1
		c0.7,0,0.9,0.4,0.9,1v3.2h3.1c0.5,0,1.1,0.3,1.1,0.9c0,0.5-0.4,0.9-1.1,0.9h-3.1v2.7c0,0.5-0.3,1-0.9,1c-0.7,0-0.9-0.4-0.9-1V22H16
		c-0.5,0-1.1-0.4-1.1-1C14.9,20.5,15.4,20.1,16,20.1z M27.3,34.6H13.1c-0.5,0-1.1-0.3-1.1-0.9c0-0.5,0.4-0.9,1.1-0.9h14.1
		c0.5,0,1.1,0.3,1.1,0.9C28.2,34.1,27.8,34.6,27.3,34.6z M27.3,30.2H13.1c-0.5,0-1.1-0.6-1.1-1.3c0-0.5,0.4-1.3,1.1-1.3h14.1
		c0.5,0,1.1,0.6,1.1,1.3C28.2,29.6,27.8,30.2,27.3,30.2z"/>
</g>
</svg>
