<?xml version="1.0" encoding="utf-8"?>
<!-- Generator: Adobe Illustrator 20.1.0, SVG Export Plug-In . SVG Version: 6.00 Build 0)  -->
<svg version="1.1" id="Layer_1" xmlns="http://www.w3.org/2000/svg" xmlns:xlink="http://www.w3.org/1999/xlink" x="0px" y="0px"
	 viewBox="0 0 40 40" style="enable-background:new 0 0 40 40;" xml:space="preserve">
<style type="text/css">
	.st0{fill:#000001;}
</style>
<g>
	<polygon class="st0" points="28.3,14.5 28.1,14.3 23.6,18.6 22.3,18.6 22.3,19 23.2,19 23.2,19 27.6,19 27.6,18.6 24.2,18.6 	"/>
	<polygon class="st0" points="15.9,14.9 19.7,18.8 18.2,18.8 18.2,18.8 20.6,18.8 16.1,14.5 	"/>
	<polygon class="st0" points="20.9,19 20.9,19 20.9,19 	"/>
	<path class="st0" d="M36.7,18.2c-0.3-0.4-0.7-0.6-1.2-0.6h-4.3c1.6-2.8,1.3-5.9,1.3-6c-0.1-0.7-0.7-1.3-1.5-1.3
		c-5.7,0-8.3,2.7-9.4,5.2c-1.3-3.1-4.3-4.3-7-4.3c-0.4,0-0.6,0-0.7,0c-0.7,0.1-1.3,0.7-1.3,1.5c0,0.3,0,0.5,0,0.8
		c-1-0.5-2.1-0.7-3.1-0.7c-0.3,0-0.5,0-0.5,0c-0.7,0.1-1.3,0.7-1.3,1.5c0,1.4,0.3,2.6,0.7,3.4H4.5c-0.5,0-0.9,0.2-1.2,0.6
		c-0.3,0.4-0.3,0.9-0.2,1.3c0.1,0.3,3.1,7.8,10.4,8.7c0,0.8,0.7,1.5,1.5,1.5h10c0.8,0,1.5-0.7,1.5-1.5c7.3-0.9,10.3-8.3,10.4-8.7
		C37.1,19.1,37,18.6,36.7,18.2z M25.1,26.8v1.4H15v-1.4c-7.3,0-10.5-8-10.5-8H12c-1.4-0.4-2.8-1.7-2.8-4.7c0,0,0.1-0.1,0.4-0.1
		c1.2,0,4.6,0.7,4.7,4.8h3.5c0,0,0,0,0,0l0,0h0c-1.8-0.4-3.7-2.3-3.7-6.3c0,0,0.2-0.1,0.5-0.1c1.5,0,6.1,0.6,6.3,6.3h1.3
		c0.2-2.4,1.6-7.3,8.9-7.3c0,0,0.5,4.9-3.1,7.3h7.6C35.5,18.8,32.4,26.8,25.1,26.8z"/>
	<polygon class="st0" points="14.3,19 14.3,19 14.3,19 	"/>
	<polygon class="st0" points="10.4,15.9 13.2,18.8 12.5,18.8 12.5,18.8 14.1,18.8 10.6,15.5 	"/>
</g>
</svg>
