<?xml version="1.0" encoding="utf-8"?>
<!-- Generator: Adobe Illustrator 20.1.0, SVG Export Plug-In . SVG Version: 6.00 Build 0)  -->
<svg version="1.1" id="Layer_1" xmlns="http://www.w3.org/2000/svg" xmlns:xlink="http://www.w3.org/1999/xlink" x="0px" y="0px"
	 viewBox="0 0 40 40" style="enable-background:new 0 0 40 40;" xml:space="preserve">
<style type="text/css">
	.st0{fill:#000001;}
</style>
<path class="st0" d="M36.1,32.7L5.9,26v-4.2l29.8,6.6c0.1,0,0.2,0,0.3,0c0.5,0,0.9-0.3,1-0.8c0.1-0.6-0.3-1.1-0.8-1.2L5.9,19.7v-4.2
	l29.8,6.6c0.1,0,0.2,0,0.3,0c0.5,0,0.9-0.3,1-0.8c0.1-0.4-0.1-0.8-0.4-1.1l-18-14.9C6.3,5.8,3,13.8,3,13.8V14v0.5v12.3
	c0,0,0,0,0,0.1c0,0,0,0.1,0,0.1c0,0,0,0,0,0.1c0,0,0,0.1,0,0.1c0,0,0,0,0,0c0,0,0,0.1,0.1,0.1c0,0,0,0,0,0c0,0,0.1,0.1,0.1,0.1
	c0,0,0,0,0,0c0.1,0.1,0.3,0.2,0.5,0.3l31.9,6.9c0.1,0,0.2,0,0.2,0c0.5,0,0.9-0.3,1-0.8C37.1,33.4,36.7,32.8,36.1,32.7z"/>
</svg>
