<?xml version="1.0" encoding="utf-8"?>
<!-- Generator: Adobe Illustrator 20.1.0, SVG Export Plug-In . SVG Version: 6.00 Build 0)  -->
<svg version="1.1" id="Layer_1" xmlns="http://www.w3.org/2000/svg" xmlns:xlink="http://www.w3.org/1999/xlink" x="0px" y="0px"
	 viewBox="0 0 40 40" style="enable-background:new 0 0 40 40;" xml:space="preserve">
<g>
	<path d="M25,21.4c0.3,0.8,0.8,1.6,1.4,2.2c0,0.2,0.1,0.4,0.3,0.6l0.5,0.3c0.3,0.2,0.6,0.1,0.8-0.2c0.2-0.3,0.1-0.6-0.2-0.8
		l-0.5-0.3c-0.2-0.1-0.3-0.1-0.5-0.1c-0.5-0.5-0.9-1.1-1.1-1.7l0.2,0c0.1,0,0.1,0,0.2,0l0-1.1c0.1,0.1,0.3,0.2,0.4,0.2
		c0.1,0,0.1,0,0.2-0.1c0.6,1.8,2.1,3,3.8,3c1.7,0,3.2-1.3,3.8-3c0.1,0,0.1,0.1,0.2,0.1c0.1,0,0.2,0,0.3-0.1l0,1.1c0.1,0,0.1,0,0.2,0
		l0.7,0c0.5,0,0.9-0.3,0.9-0.8l0.1-2.5c0-0.3-0.2-0.7-0.5-0.8c-0.2-1.4-0.7-2.7-1.6-3.7c-1.1-1.3-2.6-2-4.1-2c-1.6,0-3,0.7-4.1,2
		c-0.9,1-1.5,2.3-1.6,3.7c-0.3,0.2-0.4,0.4-0.4,0.8l0.1,2.5C24.2,21,24.6,21.4,25,21.4z M30.3,22.6c-1.9,0-3.4-1.9-3.4-4.2
		c0-0.4,0-0.8,0.1-1.2c0.9-1.1,2.7-1.2,3.8,0.1c1.1,1.4,2.5,1.4,2.9,1.4C33.6,20.9,32.1,22.6,30.3,22.6z M30.3,12.5
		c2.4,0,4.4,2,4.8,4.6l-0.1,0c-0.1,0-0.1,0-0.2,0l0,1c0,0-0.1,0-0.1,0c-0.1,0-0.1,0-0.2,0c-0.1-2.7-1.9-4.8-4.2-4.8
		c-2.2,0-4.1,2.1-4.2,4.8c-0.1,0-0.1,0-0.2,0c-0.1,0-0.1,0-0.2,0.1l0-1c-0.1,0-0.1,0-0.2,0l-0.1,0C25.9,14.6,27.9,12.5,30.3,12.5z"
		/>
	<path d="M18.6,23.8h-0.4l-3.5,3.5l-3.5-3.5h-0.9c-4.5,0-8.2,3.7-8.2,8.2v1.5c0,0.1,0-0.1,0,0.4h24.8c0-0.5-0.1-0.3-0.1-0.4v-1.5
		C26.7,27.5,23.1,23.8,18.6,23.8z"/>
	<path d="M37.8,30.6v-1.9c0-2.8-2.1-4.9-5-4.9h-0.1c-0.3,0-0.6,0.2-1,0.3L30.4,30L29,24.1c-0.1,0-0.3-0.1-0.4-0.2
		c0,0.3,0,0.5-0.2,0.7c-0.2,0.3-0.6,0.5-1,0.5c-0.2,0-0.5-0.1-0.6-0.2l-0.5-0.3c-0.2-0.2-0.4-0.4-0.5-0.7c-0.5,0.2-1,0.4-1.4,0.8
		c1.8,1.4,3,3.9,3.3,5.8H38C38,30.6,37.8,30.7,37.8,30.6z"/>
	<path d="M10.9,21.6c3.7,3.3,7.2,0.1,7.2,0.1c1.5,1,4.7,1.1,4.7,1.1s-1.5-1.6-0.7-5.7c0.6-3.3,0.1-6.8-2-8.9C18.9,6.9,16.9,6,14.6,6
		c-2,0-3.9,0.7-5,1.8c-2.8,2.3-2.6,6.7-2.4,9.6c0.4,4-1.1,5.5-1.1,5.5C8.5,22.7,10.9,21.6,10.9,21.6z M10.2,13.6
		c1.4-0.2,2.5-1.2,2.5-1.2c-1.1,1.5-0.5,3.4-0.5,3.4s-0.1-1,2.3-2c2.5-1,2.9-2.3,2.9-2.3c0.8,2.2,2.4,2.3,2.4,2.3s0,3-1.3,5.3
		c-2.2,3.8-6.4,2.5-8,0.3c-0.1-0.1-0.2-0.3-0.3-0.4c0.8,0.4,1.6,0.6,2.4,0.7c0.2,0.3,0.5,0.5,0.9,0.5l1,0c0.5,0,1-0.5,1-1
		c0-0.5-0.5-1-1-1l-1,0c-0.3,0-0.6,0.2-0.8,0.4c-1.1-0.2-2.2-0.6-3.2-1.3C9,15.5,9.2,13.8,10.2,13.6z"/>
</g>
</svg>
