<?xml version="1.0" encoding="utf-8"?>
<!-- Generator: Adobe Illustrator 20.1.0, SVG Export Plug-In . SVG Version: 6.00 Build 0)  -->
<svg version="1.1" id="Layer_1" xmlns="http://www.w3.org/2000/svg" xmlns:xlink="http://www.w3.org/1999/xlink" x="0px" y="0px"
	 viewBox="0 0 40 40" style="enable-background:new 0 0 40 40;" xml:space="preserve">
<style type="text/css">
	.st0{fill:#000001;}
</style>
<g>
	<ellipse class="st0" cx="27.7" cy="7.6" rx="5.3" ry="5.5"/>
	<path class="st0" d="M29.8,14.6c-3.6,0-5.2,1.6-6.1,2.6c-1.5,1.6-2.8,4.5-5.3,7c-2.3,2.2-5.4,4.9-9.9,5.5C4.7,30.1,1,28.7,1,28.7
		l0,0c3.8,5.5,10.1,9.2,17.1,9.2c10.8,0,19.7-8.4,20.9-19.2C35.3,14.9,33.4,14.6,29.8,14.6z"/>
	<ellipse class="st0" cx="12.3" cy="11.5" rx="5.5" ry="5.7"/>
	<path class="st0" d="M12.4,26.1c6.4-3.7,9.5-8.9,9.5-8.9s-7.4,1.5-12.4,3c-7.7,2.3-7,7.4-7,7.4S6.1,29.8,12.4,26.1z"/>
</g>
</svg>
