<?xml version="1.0" encoding="utf-8"?>
<!-- Generator: Adobe Illustrator 20.1.0, SVG Export Plug-In . SVG Version: 6.00 Build 0)  -->
<svg version="1.1" id="Layer_1" xmlns="http://www.w3.org/2000/svg" xmlns:xlink="http://www.w3.org/1999/xlink" x="0px" y="0px"
	 viewBox="0 0 40 40" style="enable-background:new 0 0 40 40;" xml:space="preserve">
<g>
	<path d="M31,19.1h2.3c0-6.8-5.5-12.5-13-12.5V9C26.6,9,31,13.5,31,19.1z"/>
	<path d="M24.1,27.6c-4.6-3.1-8.5-7-11.6-11.6l3.5-3.6L12.5,3h-0.6C9.2,3,6.8,4.1,5,5.9c-1.9,1.9-3,4.5-3,7.2c0,1.8,0.5,3.6,1.4,5.1
		c4.4,7.6,10.7,13.9,18.3,18.3c1.6,0.9,3.3,1.4,5.1,1.4c2.7,0,5.1-1.1,7-3c1.8-1.8,2.7-4.3,2.7-6.8v-0.6l-9.1-3.5L24.1,27.6z"/>
	<path d="M35.7,19.1H38C38,9.8,30.3,2,20.4,2v2.3C29.1,4.3,35.7,11.1,35.7,19.1z"/>
</g>
</svg>
