<?xml version="1.0" encoding="utf-8"?>
<!-- Generator: Adobe Illustrator 20.1.0, SVG Export Plug-In . SVG Version: 6.00 Build 0)  -->
<svg version="1.1" id="Layer_1" xmlns="http://www.w3.org/2000/svg" xmlns:xlink="http://www.w3.org/1999/xlink" x="0px" y="0px"
	 viewBox="0 0 40 40" style="enable-background:new 0 0 40 40;" xml:space="preserve">
<style type="text/css">
	.st0{fill:#000001;}
</style>
<g>
	<path class="st0" d="M34.1,18.9c-0.1-1.6-1-2.8-2.4-3.4l-3.5-1.6c0-1.1-1.2-2.5-2.9-3.3c0.3-0.2,0.6-0.6,0.8-1
		c0.5-1.1,0-2.4-1.1-2.9c-1.1-0.5-2.4,0-2.9,1.1c-0.2,0.4-0.2,0.8-0.2,1.2c-1.8-0.8-3.6-0.7-4.4,0.1l-3.3-1.4
		c-1.7-0.7-3.7-0.2-4.8,1.2l2.4,1.1l2,0.9l18,7.9H3v2.3h3.5v7.9c0,2.2,1.8,4.2,4,4.2h19.2c2.2,0,4.2-2,4.2-4.2v-7.9H37v-2.3H34.1z
		 M10.8,30.2c0,1.2-2.3,1.2-2.3,0v-8.6c0-1.6,2.3-1.6,2.3,0V30.2z"/>
	<path class="st0" d="M6.2,18.1H11c-0.3-0.4-0.9-1.2-1.6-1.4l2.4-2.5l-0.5-0.4l-1.6,1.8l0.9-2l-0.6-0.3L9.2,15l0-2.2l-0.6,0l0,3.1
		l-1.6-2.6l-0.6,0.3l1.9,2.9C7.3,16.7,6.5,17.3,6.2,18.1z"/>
	<path class="st0" d="M16.1,15.5c-1.4,0-2.6,1-2.9,2.6H19C18.7,16.5,17.5,15.5,16.1,15.5z"/>
	<polygon class="st0" points="20.3,18.1 23.2,18.1 21.6,16.7 	"/>
</g>
</svg>
