<?xml version="1.0" encoding="utf-8"?>
<!-- Generator: Adobe Illustrator 20.1.0, SVG Export Plug-In . SVG Version: 6.00 Build 0)  -->
<svg version="1.1" id="Layer_1" xmlns="http://www.w3.org/2000/svg" xmlns:xlink="http://www.w3.org/1999/xlink" x="0px" y="0px"
	 viewBox="0 0 40 40" style="enable-background:new 0 0 40 40;" xml:space="preserve">
<style type="text/css">
	.st0{fill:#000001;}
</style>
<path class="st0" d="M31.1,17.1c-1.3,0-2.5,0.4-3.5,1L25,14.2l1.1-3.4h2.1c0.2,0,0.4-0.3,0.4-0.6c0-0.2-0.2-0.6-0.4-0.6h-4.8
	c-0.2,0-0.4,0.3-0.4,0.6c0,0.2,0.2,0.6,0.4,0.6h1.8l-1,3h-11l0.5-1.7l0.1-0.3c0-0.1,0-0.3-0.1-0.4c-0.1-0.1-0.2-0.2-0.4-0.2H10
	c-0.9,0-2-0.7-2-1.6c0-0.2-0.2-0.4-0.4-0.4S7.1,9.2,7.1,9.5c0,1.4,1.5,2.4,2.9,2.4h2.8l-1.7,5.5C10.4,17.1,9.7,17,8.9,17
	C5.1,17,2,20.2,2,24c0,3.8,3.1,6.9,6.9,6.9s6.9-3.1,6.9-6.9c0-2.7-1.6-5.1-3.9-6.2l0.4-1.3l6.7,7.6c-0.2,0.4-0.4,0.8-0.4,1.3
	c0,1.3,1.1,2.4,2.4,2.4c1.2,0,2.2-0.9,2.4-2.1l0.9-0.2c0.7,3.1,3.5,5.4,6.7,5.4c3.8,0,6.9-3.1,6.9-6.9C38,20.2,34.9,17.1,31.1,17.1z
	 M14.9,24c0,3.3-2.7,6-6,6c-3.3,0-6-2.7-6-6c0-3.3,2.7-6,6-6c0.7,0,1.3,0.1,1.9,0.3L9.4,23c-0.1-0.1-0.3-0.1-0.5-0.1
	c-0.6,0-1.1,0.5-1.1,1.1c0,0.6,0.5,1.1,1.1,1.1c0.4,0,0.7-0.2,0.9-0.4c0,0,0.1-0.1,0.1-0.2c0.1-0.1,0.1-0.2,0.1-0.3l1.7-5.5
	C13.6,19.6,14.9,21.7,14.9,24z M9.1,24l0,0.2c0,0-0.1,0.1-0.2,0.1c-0.1,0-0.2-0.1-0.2-0.2c0-0.1,0.1-0.2,0.2-0.2
	C9,23.8,9.1,23.9,9.1,24z M12.6,15.5l0.3-0.9h11L21.3,23c-0.1,0-0.2,0-0.3,0c-0.5,0-1,0.2-1.4,0.5L12.6,15.5z M22.5,24.9L21.8,25
	c0-0.1-0.1-0.2-0.1-0.2l0.2-0.7C22.2,24.3,22.4,24.6,22.5,24.9z M21,23.9l-0.2,0.7c-0.1,0-0.1,0-0.2,0.1l-0.4-0.5
	C20.4,24,20.7,23.9,21,23.9C21,23.9,21,23.9,21,23.9z M21,26.9c-0.8,0-1.5-0.7-1.5-1.5c0-0.2,0-0.4,0.1-0.5l0.6,0.6
	c0,0.4,0.4,0.8,0.9,0.8c0.3,0,0.5-0.1,0.7-0.3l0.8-0.1C22.3,26.5,21.7,26.9,21,26.9z M24.2,24.7l-0.9,0.1c-0.2-0.7-0.6-1.2-1.2-1.5
	l2.5-8.1l2.3,3.3c-1.6,1.3-2.7,3.2-2.7,5.5C24.2,24.2,24.2,24.4,24.2,24.7z M25.1,24c0-1.9,0.9-3.6,2.3-4.7l2.8,4.1
	c-0.1,0.1-0.1,0.2-0.1,0.3l-4.9,0.8C25.1,24.3,25.1,24.2,25.1,24z M31.1,30c-2.8,0-5.2-2-5.8-4.6l4.9-0.8c0.2,0.3,0.5,0.5,0.9,0.5
	c0.6,0,1.1-0.5,1.1-1.1c0-0.6-0.5-1.1-1.1-1.1c-0.1,0-0.1,0-0.2,0l-2.8-4.1c0.9-0.5,1.9-0.8,3-0.8c3.3,0,6,2.7,6,6
	C37.1,27.3,34.4,30,31.1,30z M30.9,24c0-0.1,0.1-0.2,0.2-0.2c0.1,0,0.2,0.1,0.2,0.2c0,0.1-0.1,0.2-0.2,0.2
	C31,24.2,30.9,24.1,30.9,24z"/>
</svg>
