<?xml version="1.0" encoding="utf-8"?>
<!-- Generator: Adobe Illustrator 20.1.0, SVG Export Plug-In . SVG Version: 6.00 Build 0)  -->
<svg version="1.1" id="Layer_1" xmlns="http://www.w3.org/2000/svg" xmlns:xlink="http://www.w3.org/1999/xlink" x="0px" y="0px"
	 viewBox="0 0 40 40" style="enable-background:new 0 0 40 40;" xml:space="preserve">
<g>
	<path d="M33.9,12h-5.5c-0.2-4.4-3.9-8-8.4-8s-8.1,3.5-8.4,8H6.1c-1,0-1.7,0.8-1.7,1.7v20.6c0,1,0.8,1.7,1.7,1.7h27.7
		c1,0,1.7-0.8,1.7-1.7V13.7C35.6,12.7,34.8,12,33.9,12z M20,4.9c4,0,7.3,3.2,7.5,7.1H26c-0.2-3.1-2.8-5.6-6-5.6
		c-3.2,0-5.8,2.5-6,5.6h-1.5C12.7,8,16,4.9,20,4.9z M25.1,12H14.9c0.2-2.7,2.5-4.7,5.1-4.7S24.9,9.3,25.1,12z M34.7,34.2
		c0,0.5-0.4,0.9-0.9,0.9H6.1c-0.5,0-0.9-0.4-0.9-0.9V13.7c0-0.5,0.4-0.9,0.9-0.9H12h2.4h11.2H28l0,0h5.9c0.5,0,0.9,0.4,0.9,0.9
		L34.7,34.2L34.7,34.2z"/>
	<path d="M27.3,21.3h-4.5v-4.5c0-0.2-0.2-0.4-0.4-0.4h-4.6c-0.2,0-0.4,0.2-0.4,0.4v4.5h-4.5c-0.2,0-0.4,0.2-0.4,0.4v4.6
		c0,0.2,0.2,0.4,0.4,0.4h4.5v4.5c0,0.2,0.2,0.4,0.4,0.4h4.6c0.2,0,0.4-0.2,0.4-0.4v-4.5h4.5c0.2,0,0.4-0.2,0.4-0.4v-4.6
		C27.7,21.4,27.5,21.3,27.3,21.3z M26.9,25.9h-4.5c-0.2,0-0.4,0.2-0.4,0.4v4.5h-3.8v-4.5c0-0.2-0.2-0.4-0.4-0.4h-4.5v-3.8h4.5
		c0.2,0,0.4-0.2,0.4-0.4v-4.5h3.8v4.5c0,0.2,0.2,0.4,0.4,0.4h4.5L26.9,25.9L26.9,25.9z"/>
</g>
</svg>
