<?xml version="1.0" encoding="utf-8"?>
<!-- Generator: Adobe Illustrator 20.1.0, SVG Export Plug-In . SVG Version: 6.00 Build 0)  -->
<svg version="1.1" id="Layer_1" xmlns="http://www.w3.org/2000/svg" xmlns:xlink="http://www.w3.org/1999/xlink" x="0px" y="0px"
	 viewBox="0 0 40 40" style="enable-background:new 0 0 40 40;" xml:space="preserve">
<style type="text/css">
	.st0{fill:#000001;}
</style>
<g>
	<path class="st0" d="M31.7,34c-0.9-0.1-1.9-0.8-2.6-1.3c-1.8-1.3-7.7-6.6-8.6-1.7c-0.9-4.9-6.9,0.4-8.7,1.7
		c-0.7,0.5-1.7,1.2-2.6,1.3c-1,0.1-2.5-0.5-2.9-2c0,0.1,0,0.2,0,0.2c0,1,0.4,1.9,1,2.7c1.7,2,4.6,2.6,7.1,1.9c1.3-0.3,2.4-1,3.5-1.8
		c0.3-0.2,2.6-2.4,2.6-2.7c0,0.3,2.1,2.5,2.5,2.7c1.1,0.8,2.1,1.4,3.4,1.8c2.5,0.7,5.5,0.1,7.2-1.9c0.6-0.8,1.1-1.7,1.1-2.7
		c0-0.1,0-0.2,0-0.2C33.9,33.4,32.7,34,31.7,34z"/>
	<path class="st0" d="M12.8,19.4c0,2.5,0,5.1,0.1,8.2c4.2-2.7,11.2-2.8,15.7-0.3v-7.5c8.6-0.8,7-13-1.1-11.4
		c-2-6.8-11.5-7.3-14.3-0.8C4.5,4.7,1.1,18.9,12.8,19.4z"/>
</g>
</svg>
