<?xml version="1.0" encoding="utf-8"?>
<!-- Generator: Adobe Illustrator 20.1.0, SVG Export Plug-In . SVG Version: 6.00 Build 0)  -->
<svg version="1.1" id="Layer_1" xmlns="http://www.w3.org/2000/svg" xmlns:xlink="http://www.w3.org/1999/xlink" x="0px" y="0px"
	 viewBox="0 0 40 40" style="enable-background:new 0 0 40 40;" xml:space="preserve">
<g>
	<path d="M36.4,13.6h-9.9V3.6c0-0.4-0.3-0.6-0.6-0.6H14.2c-0.4,0-0.6,0.3-0.6,0.6v9.9H3.6c-0.4,0-0.6,0.3-0.6,0.6v11.6
		c0,0.4,0.3,0.6,0.6,0.6h9.9v9.9c0,0.4,0.3,0.6,0.6,0.6h11.6c0.4,0,0.6-0.3,0.6-0.6v-9.9h9.9c0.4,0,0.6-0.3,0.6-0.6V14.2
		C37,13.9,36.7,13.6,36.4,13.6z"/>
</g>
</svg>
