<?xml version="1.0" encoding="utf-8"?>
<!-- Generator: Adobe Illustrator 20.1.0, SVG Export Plug-In . SVG Version: 6.00 Build 0)  -->
<svg version="1.1" id="Layer_1" xmlns="http://www.w3.org/2000/svg" xmlns:xlink="http://www.w3.org/1999/xlink" x="0px" y="0px"
	 viewBox="0 0 40 40" style="enable-background:new 0 0 40 40;" xml:space="preserve">
<style type="text/css">
	.st0{fill:#1E120D;}
</style>
<path class="st0" d="M38.9,18.4c0-0.2-0.1-0.4-0.2-0.6c-0.3-0.5-0.8-0.6-0.8-0.6l-20.1,0l0,0.4L6.4,17.7l-0.1,0.2c0,0,0,0-0.1,0.1
	l-2.6,0l-0.1,0.2c0,0-0.2,0.6-0.3,1.3L1,19.9l2.2,0.3c0,0.5,0.1,1,0.4,1.5L3.7,22l2.6,0c0,0.1,0,0.1,0.1,0.2l0.1,0.3l11.4-0.1l0,0.4
	l20.2,0c0.2,0,0.3,0,0.5-0.2C39.1,22.1,39,19.8,38.9,18.4z M6,21.2l-1.8,0c-0.3-0.9-0.1-2,0-2.4l1.8,0C5.9,19.4,5.8,20.2,6,21.2z
	 M17.8,21.6l-2.6,0l0-1.3l-0.4,0l0,1.3l-1.6,0l0-2l-0.4,0l0,2l-1.7,0l0-1.2l-0.4,0l0,1.2l-1.8,0l0-2l-0.4,0l0,2l-1.6,0
	c-0.5-1.5-0.2-2.7,0-3.2l10.9-0.1L17.8,21.6z M18.6,18l15,0c0.1,0.1,0.1,0.4,0.2,0.7l-15.1,0L18.6,18z M33.5,22l-14.9,0l0-0.7
	l15.1,0C33.7,21.6,33.6,21.8,33.5,22z M33.8,21l-15.2,0l0-1.9l15.2,0C33.9,19.6,33.9,20.2,33.8,21z M38,22l-3.6,0
	c0.5-1.9,0.3-3.3,0-4l3.4,0c0,0,0.1,0.1,0.2,0.2c0,0.1,0.1,0.2,0.1,0.3C38.3,20.1,38.2,21.7,38,22z"/>
</svg>
