<?xml version="1.0" encoding="utf-8"?>
<!-- Generator: Adobe Illustrator 20.1.0, SVG Export Plug-In . SVG Version: 6.00 Build 0)  -->
<svg version="1.1" id="Layer_1" xmlns="http://www.w3.org/2000/svg" xmlns:xlink="http://www.w3.org/1999/xlink" x="0px" y="0px"
	 viewBox="0 0 40 40" style="enable-background:new 0 0 40 40;" xml:space="preserve">
<g>
	<rect x="17.8" y="7.5" width="7" height="1.5"/>
	<rect x="17.8" y="13.5" width="7" height="1"/>
	<rect x="17.8" y="10.5" width="7" height="1.5"/>
	<rect x="8.8" y="19" width="16" height="1.5"/>
	<rect x="17.8" y="16" width="7" height="1.5"/>
	<rect x="8.8" y="22" width="16" height="1"/>
	<rect x="8.8" y="25" width="16" height="1"/>
	<rect x="8.8" y="27.5" width="16" height="1.5"/>
	<rect x="8.8" y="30.5" width="16" height="1.5"/>
	<rect x="8.8" y="7.5" width="7" height="10"/>
	<path d="M29.8,11.5V3h-26v29.9c0,2.2,1.9,4.1,4.1,4.1h24.2c2.2,0,4.2-1.9,4.2-4.1V11.5H29.8z M7.9,34.5L8,34.6
		c-1,0-1.7-0.7-1.7-1.7V5h21.3l0,27.8c0,0.3,0,0.6,0.1,0.9c0,0.1,0,0.1,0,0.2l0,0.1c0.1,0.2,0.1,0.3,0.2,0.5c0,0.1,0.1,0.1,0.1,0.1
		H7.9z M33.8,32.9c0,1-0.7,1.9-1.8,1.9c-0.1,0-0.2,0-0.3,0c0,0,0,0-0.1,0c-0.1,0-0.2,0-0.2-0.1l0,0c-0.5-0.2-0.9-0.7-1.1-1.3
		c0,0,0,0,0-0.1c0-0.1,0-0.2,0-0.3V14h3.5V32.9z"/>
</g>
</svg>
